<svg height="80" viewBox="0 0 80 80" width="80" xmlns="http://www.w3.org/2000/svg" xmlns:xlink="http://www.w3.org/1999/xlink"><defs><radialGradient id="a" cx="50%" cy="50%" gradientTransform="matrix(0 1 -1.000446 0 1.000223 0)" r="50%"><stop offset="0" stop-color="#aff7ff"/><stop offset="1" stop-color="#39c1ee"/></radialGradient><path id="b" d="m29.9995921 0c-16.5679009 0-29.9995921 13.4318548-29.9995921 30.0002041s13.4316912 29.9997959 29.9995921 29.9997959c16.5687167 0 30.0004079-13.4314466 30.0004079-29.9997959s-13.4316912-30.0002041-30.0004079-30.0002041z"/><radialGradient id="c" cx="50%" cy="52.707979%" gradientTransform="matrix(0 1 -.94941251 0 1.000416 .02708)" r="50.543831%"><stop offset="0" stop-color="#dbffb7"/><stop offset="1" stop-color="#b2ef76"/></radialGradient><mask id="d" fill="#fff"><use fill="#fff" fill-rule="evenodd" xlink:href="#b"/></mask></defs><g fill="none" fill-rule="evenodd"><path d="m0 0h80v80h-80z"/><g transform="translate(10 10)"><use fill="url(#a)" xlink:href="#b"/><path d="m29.9995921 60c-2.9700892 0-5.8393903-.4316451-8.54859-1.2356273.6888109-1.0639378 1.4540473-2.2442476 2.6229582-2.7704815 2.1454054-.965661 3.1418919-2.5412133 4.8563513-6.2343077 1.7144595-3.6930944 1.8328379-7.4374197-1.6637838-12.9093634-3.4966216-5.4719437-6.2837838-5.8618674-9.8448648-5.9972633-3.5614865-.1353958-4.1075676-1.186035-6.8104054-2.3041689-2.70283788-1.1181338-.65841976-2.3796447.3887424-2.5487879 1.0471622-.1695497 3.8173386-.8901852 4.6617981-2.991057.8448649-2.1004652 7.4975676-4.8510745 9.8481081-6.1834834 1.5547297-.8814961.3040541-2.710763-.5067567-4.3029856-.8108109-1.5926292 1.6216216-1.6605304 3.9271621-1.8296736 2.3055406-.1695497 3.8768919-2.40581739 5.4308108-3.15110442 1.5543243-.74569362 1.6216216-1.69427771 4.5608108-4.03219391 1.1317383-.90021741 1.7525654-1.28802558 2.0881388-1.42456187.1219325.04813259.243474.09704097.3646184.14671905-.0093515.03384855-.0203247.05806045-.0203247.05806045s.3758046.12704143.9009955.31972346c1.1125873.49858158 2.1892677 1.06295963 3.2250903 1.68818292-.0503691.0840862-.229588.14129098-.5787885.16046008-2.4660811.13580243-3.715946 2.84615886-4.1213514 3.49020395-.4054054.64363849-2.7028378 1.42307943-4.3244594 1.82967355-1.6216217.40659414-2.1620271 2.33791624-2.4324325 3.59144584-.27 1.2535297-.9798648 4.6420851.4390541 6.1326592 1.4189189 1.4909806.304054 2.6770157-.1013514 2.8803128-.4054054.203297-1.6552702-.4744954-3.5132432 1.9650694-1.8583784 2.4395647-2.2467568 10.2323476-.9462162 12.8414621 2.3205405 4.6538764 9.1216216 3.6349515 10.0337837 8.6063778.5233784 2.8506314-5.2025675 4.9128768-2.9391891 8.4368281 1.1016399 1.7148835 2.9472314 2.7556572 4.6413839 3.4269859-3.5786565 1.5075662-7.5110375 2.3408952-11.6380494 2.3408952z" fill="#fff" fill-opacity=".2" mask="url(#d)"/><path d="m14.2753529 3.27855193c1.3868879.99758663 2.3218091 2.63755292 1.1836275 4.20294663-1.7931081 2.46518017-4.3240541 2.64936734-3.310946 3.69634714 1.0135135 1.0469799 8.697973-3.54509412 8.7498649.7761882.034054 2.8087522-2.5524324 2.2301688-4.02 3.3881488-2.5289189 1.9951574-4.7298649 3.8626442-5.1352703 6.2343077-.4054054 2.3720701-6.02229728 1.0994305-7.60581079 2.7859829-1.58351351 1.6865525-1.59608108 3.6691054 1.52472973 4.8714042 2.33108108.8981664 1.70594595 2.4399714 3.31094595 2.6770157 2.44297301.360649 2.95824321-.2374509 5.73567571.2032971 2.7778378.4403414 4.0633783 2.1891028 4.8105405 3.5377755.7471622 1.3482661 5.0302703 1.6528051 5.9387838 3.4987424 1.6228378 3.2978849-.2752703 8.5799492-2.6367568 10.0725562-2.3618919 1.492607-2.1222973 3.3853026-2.8009459 4.3387659-.8322973 1.1689581-1.6463514.5700449-2.4928379 2.7676862-.2828929.7340927-.5774113 1.273829-.9021408 1.644411-1.5377573-.7365795-3.0053424-1.5962242-4.3899976-2.566178-.2349514-1.1058412-.2832542-2.4665919-.0867805-4.0142857.4731081-3.7272483-1.1485135-3.1852583-3.58094592-5.4890206-2.43243243-2.3041689-.87851351-5.218229-1.48662162-7.3865955-.60810811-2.1683664.54405405-3.2982915-2.70121622-5.6134384-2.31038944-1.6484172-3.83197024-1.5047524-5.34603766-1.456569-.02206122-.4798438-.03321298-.9625344-.03321298-1.4478294 0-11.3812735 6.13357236-21.33026894 15.2753529-26.72165897zm14.1071984-4.23709945c.535531-.02752223 1.0746528-.04145248 1.6170272-.04145248 2.3301608 0 4.6002773.2570926 6.7835317.74445824.5929897.40595685.9017239.97306053.7895197 1.74938442-3.3105405 0-2.297027 3.69228123-4.8186486 3.69228123s-3.1540541 1.92197041-5.1356757 1.92197041-1.1055405-3.48695119-1.8360811-4.32656806c-.8172973-.93923242-1.9933783-1.08438652-2.1283783-3.04945592 0 0 2.13209-.4257082 4.7287051-.69061784zm19.7224734 5.79234924c7.8104095 5.62889568 12.8949753 14.80399258 12.8949753 25.16640918 0 .3789309-.0067991.7562738-.020282 1.1319135-4.2416958-.6201292-2.5429486-2.7944307-5.0664374-4.4141991-2.5333784-1.6263765-4.3832433-7.0897817-3.6458108-8.2798827.7378378-1.1896944 3.0462162-1.7125744 2.8637838-2.1476301-.1824325-.4350558-1.1943244-.7286167-2.4591892.6542099-1.2648649 1.38242-3.4731081 1.0823536-4.0743244 1.0697491-.6016216-.0126044-1.6706756-1.1409031-2.1936486-.9156499-.522973.2256597.5566216 1.5552225-.0514865 1.6906183-.842027.1874399-.9085135-1.9544979-1.7298649-1.7207063-.8213513.233385-2.5528378-.9876171-2.6541892.3590226-.1013513 1.3470463-.2505405 2.1175422-1.6722972 2.1175422-1.4217568 0-2.0606757-.5842757-2.213919-1.9268495-.1532432-1.3425738 2.9910811-1.3767277 3.9798649-2.5900046s.6510811-1.8565088 1.9633784-2.0842015c1.3122973-.2280993 1.8133784-.2882752 2.0821621-1.2193757.2687838-.9311006 2.61-1.72802507 2.3781081-2.11794883-.2314864-.38992376-.8327027-.49929758-1.5417567.06017593-.7094595.5594735-2.7113514.7619574-3.2181081.25371473-.5067568-.50824265-.582973-1.65199192-.152027-2.4143559.4309459-.76236398 2.8127027-2.490389 3.5979729-2.84615886zm12.631261 29.22817858c-1.1085646 8.4705616-5.6368852 15.865391-12.1536667 20.7532099-.3439948-.0679694-.6774952-.1686873-.9915171-.3097078-2.6582433-1.194167-2.4097298-4.0240621-2.637973-5.5203285-.2286487-1.4966729-.9875676-4.0606555-.2217568-5.7504606.7658109-1.6898052-.5825675-4.0248752-2.0598648-5.7959992-1.4768919-1.7707175-5.0570271-.5094625-6.9924325-.5094625-1.935 0-2.7944594-3.0140822-2.7944594-5.6256363 0-2.611554 2.4036486-5.3796468 3.7982432-7.1780126 1.3941892-1.7979592 4.8174325-2.6928729 6.6916216-2.5591034 1.8741892.1337695 2.7697298.5436163 4.7736487 1.147002 3.1698649.9542764 3.7228378 1.9492122 5.5901351 5.5581417 1.8672973 3.6089294 3.8760811 5.064943 5.9708108 5.26824.4333797.0420684.7684001.2379234 1.0272109.5221173zm-21.3296752-22.9502323c.4159459.345605 1.3321621.749353 1.144054 1.7670581-.1877027 1.0181116-.1763513 1.5458708-.9806756 1.8134097-.8043244.267539-1.2514865.3687809-1.3017568-.4224513-.0502703-.7916387-.522973-1.2539362-.8610811-1.4401563s-.8951351-1.7442888 0-2.1850368c.8821622-.4346492 1.5835135.1219782 1.9994595.4671766z" fill="url(#c)" mask="url(#d)"/></g></g></svg>